# xmcd
#
# Track frame offsets:
#	150
#	20620
#	37075
#	61379
#	97879
#	118953
#	144191
#	177355
#	202288
#	219257
#	235062
#	259019
#	287799
#	314989
#
# Disc length: 4443 seconds
#
# Revision: 1
# Processed by: cddbd v1.5.1PL0 Copyright (c) Steve Scherf et al.
# Submitted via: audiograbber 1.83.01
#
DISCID=d911590e
DTITLE=Eric Clapton - MTV Music History (Disk 1)
DYEAR=2001
DGENRE=Blues
TTITLE0=Tears In Heaven
TTITLE1=Wonderful Tonight
TTITLE2=My Father's Eyes
TTITLE3=Double Trouble
TTITLE4=Layla
TTITLE5=Ranning On Faith
TTITLE6=River Of Tears
TTITLE7=Pretty Girl
TTITLE8=Needs His Woman
TTITLE9=Please Be With Me
TTITLE10=Going Down Slow
TTITLE11=It's Probably Me
TTITLE12=Old Love
TTITLE13=Circus
EXTD=
EXTT0=
EXTT1=
EXTT2=
EXTT3=
EXTT4=
EXTT5=
EXTT6=
EXTT7=
EXTT8=
EXTT9=
EXTT10=
EXTT11=
EXTT12=
EXTT13=
PLAYORDER=
